<svg width="1000" height="1000" viewBox="0 0 1000 1000" xmlns="http://www.w3.org/2000/svg">
  <defs>
    <pattern id="contourPattern" x="0" y="0" width="200" height="200" patternUnits="userSpaceOnUse">
    </pattern>
  </defs>
  
  <rect width="100%" height="100%" fill="transparent"/>
  
  <!-- INCREASED VISIBILITY: Stroke opacity 0.4 (was 0.15), Stroke width 1.5 -->
  <g fill="none" stroke="#A65E44" stroke-width="1.5" stroke-opacity="0.4" stroke-linecap="round" stroke-linejoin="round">
    
    <!-- HILL 1: Top Left - Concentric irregular loops -->
    <path d="M150,150 Q200,50 350,150 T450,300 T300,450 T100,350 T150,150" />
    <path d="M170,170 Q210,90 330,170 T410,290 T290,410 T130,330 T170,170" />
    <path d="M190,190 Q220,130 310,190 T370,280 T280,370 T160,310 T190,190" />
    <path d="M220,220 Q240,180 290,220 T330,270 T270,330 T190,290 T220,220" /> <!-- Peak -->

    <!-- HILL 2: Bottom Right - Large spanning formation -->
    <path d="M550,550 Q700,450 850,550 T950,700 T800,850 T600,750 T550,550" />
    <path d="M580,580 Q700,500 820,580 T900,700 T780,820 T620,740 T580,580" />
    <path d="M620,620 Q700,560 780,620 T850,700 T760,780 T650,720 T620,620" />
    <path d="M660,660 Q700,620 740,660 T790,700 T730,750 T680,700 T660,660" /> <!-- Peak -->

    <!-- HILL 3: Top Right/Off-center - Elongated ridge -->
    <path d="M600,100 Q800,0 900,150 T800,300 T600,200 T500,150 T600,100" />
    <path d="M630,130 Q780,50 860,160 T770,270 T620,190 T550,160 T630,130" />
    <path d="M660,160 Q760,100 820,170 T740,240 T640,180 T660,160" /> <!-- Peak -->

    <!-- HILL 4: Bottom Left - Small hill -->
    <path d="M50,700 Q150,600 250,700 T200,850 T50,800 T50,700" />
    <path d="M80,730 Q150,650 220,730 T180,820 T80,780 T80,730" />
    <path d="M110,760 Q150,700 190,760 T160,790 T110,760" /> <!-- Peak -->
    
    <!-- Connecting contour lines (Saddle points) -->
    <path d="M300,450 Q400,500 550,550" stroke-dasharray="10,5" stroke-opacity="0.2" />
    <path d="M450,300 Q550,250 600,200" stroke-dasharray="10,5" stroke-opacity="0.2" />
  </g>
</svg>
